#!OML:ASF Y:\EmotionMaleHayes\Project 1\Capture day 1\Session 1\Male1.ASF
:FULLY-SPECIFIED
:DEGREES
837
root 11.0433 16.7163 -15.4013 173.748 55.201 176.26
lowerback 6.82245 0.686588 0.528018
upperback 1.85748 1.08041 2.05754
thorax -1.93917 0.573068 1.73038
lowerneck -20.0276 -6.8327 -3.97189
upperneck 26.7507 -10.5612 8.85411
head 13.0309 -3.61326 2.31342
rclavicle -4.84041e-014 -3.18055e-015
rhumerus -42.1987 2.4826 -86.6373
rradius 41.8391
rwrist 0.0713125
rhand -7.53383 -31.423
rfingers 7.12502
rthumb 18.3573 -60.5768
lclavicle -4.84041e-014 -3.18055e-015
lhumerus -39.6736 -2.39307 86.1613
lradius 29.8575
lwrist -10.4842
lhand -9.79022 -22.9328
lfingers 7.12502
lthumb 16.1856 6.41143
rfemur 3.67324 -12.6065 30.2361
rtibia 9.44455
rfoot -20.2762 -8.62117
rtoes 30.6004
lfemur 2.03701 12.5487 -9.16286
ltibia 59.5126
lfoot 3.37892 2.25142
ltoes -14.685
838
root 11.1138 16.7182 -15.4768 173.543 56.4455 175.764
lowerback 6.62888 0.830559 0.404589
upperback 1.96906 1.25704 2.02287
thorax -1.7231 0.66065 1.75292
lowerneck -20.1326 -6.66826 -3.57147
upperneck 26.4959 -10.3908 8.64647
head 12.8951 -3.54212 2.1887
rclavicle -4.61677e-014 -3.10104e-014
rhumerus -41.4707 3.61048 -87.1167
rradius 42.9219
rwrist 0.0209057
rhand -7.33815 -31.7449
rfingers 7.12502
rthumb 18.5456 -60.8808
lclavicle -4.61677e-014 -3.10104e-014
lhumerus -39.9718 -2.43917 86.6789
lradius 29.2182
lwrist -11.4904
lhand -9.09577 -23.0415
lfingers 7.12502
lthumb 16.8542 6.24704
rfemur 4.09371 -12.5923 29.832
rtibia 9.4195
rfoot -20.3734 -7.38233
rtoes 31.3268
lfemur 0.598655 12.1788 -9.66117
ltibia 60.6292
lfoot 2.38901 2.95314
ltoes -12.6576
839
root 11.183 16.7239 -15.5552 172.737 57.6778 174.476
lowerback 6.44315 0.974565 -0.093278
upperback 1.98231 1.40317 1.8681
thorax -1.61795 0.730613 1.86475
lowerneck -20.3051 -6.75975 -3.85931
upperneck 26.3974 -10.5372 9.00316
head 12.9467 -3.58996 2.341
rclavicle -1.61612e-013 -1.51076e-014
rhumerus -40.8279 4.80529 -87.5793
rradius 43.9438
rwrist -0.128319
rhand -7.12625 -32.0111
rfingers 7.12502
rthumb 18.7494 -61.1275
lclavicle -1.61612e-013 -1.51076e-014
lhumerus -40.3485 -1.99001 86.9412
lradius 28.5256
lwrist -12.8993
lhand -8.28845 -23.496
lfingers 7.12502
lthumb 17.6313 5.72459
rfemur 4.51016 -12.3479 28.955
rtibia 9.25909
rfoot -20.496 -6.06889
rtoes 32.7089
lfemur -0.826141 11.7576 -10.695
ltibia 61.4957
lfoot 1.27149 3.53307
ltoes -10.6756
840
root 11.2552 16.7333 -15.6294 172.615 59.0255 174.11
lowerback 6.44957 1.08216 -0.033348
upperback 1.93218 1.54582 1.80489
thorax -1.67467 0.80053 1.75405
lowerneck -20.1424 -6.48215 -3.38721
upperneck 26.3291 -10.1827 8.63216
head 12.8017 -3.44912 2.1855
rclavicle 4.46272e-014 -2.38542e-014
rhumerus -40.2719 6.06143 -88.2132
rradius 44.7437
rwrist -0.470243
rhand -7.46485 -31.9905
rfingers 7.12502
rthumb 18.4237 -61.138
lclavicle 4.46272e-014 -2.38542e-014
lhumerus -40.8923 -1.38467 87.0382
lradius 27.9397
lwrist -14.6037
lhand -7.61099 -24.2639
lfingers 7.12502
lthumb 18.2831 4.89691
rfemur 5.04062 -11.8492 28.7821
rtibia 8.74983
rfoot -20.3266 -5.23992
rtoes 31.647
lfemur -2.22957 11.3726 -11.0377
ltibia 62.3402
lfoot 0.142936 4.01832
ltoes -10.9268
841
root 11.3334 16.7438 -15.6974 172.812 60.4709 174.236
lowerback 6.56686 1.20082 0.285285
upperback 1.92159 1.72438 1.76257
thorax -1.74597 0.889171 1.51473
lowerneck -20.1683 -6.32247 -3.09083
upperneck 26.2389 -10.0385 8.58966
head 12.7402 -3.36758 2.14317
rclavicle -5.35725e-014 3.10104e-014
rhumerus -39.6311 7.12188 -88.8358
rradius 45.5037
rwrist -0.455828
rhand -7.50436 -32.002
rfingers 7.12502
rthumb 18.3857 -61.1531
lclavicle -5.35725e-014 3.10104e-014
lhumerus -40.9959 -0.485406 86.8887
lradius 26.6043
lwrist -16.741
lhand -7.52762 -25.6327
lfingers 7.12502
lthumb 18.3633 3.52055
rfemur 5.56634 -11.412 28.9111
rtibia 8.37743
rfoot -20.2026 -4.54655
rtoes 28.9687
lfemur -3.55174 11.1224 -10.9283
ltibia 63.1523
lfoot -0.707925 4.90109
ltoes -10.7183
842
root 11.411 16.7528 -15.763 172.663 61.9365 174.011
lowerback 6.70608 1.38579 0.442815
upperback 1.93905 1.97865 1.64996
thorax -1.80255 1.01516 1.28665
lowerneck -20.2039 -6.30472 -3.20934
upperneck 26.0733 -10.0901 9.01026
head 12.7226 -3.35246 2.31144
rclavicle 1.32192e-014 2.38542e-014
rhumerus -38.9916 7.9112 -89.3669
rradius 46.31
rwrist -0.168613
rhand -7.8618 -31.7763
rfingers 7.12502
rthumb 18.0418 -60.9595
lclavicle 1.32192e-014 2.38542e-014
lhumerus -40.6682 0.985568 86.3688
lradius 24.7
lwrist -19.4221
lhand -7.248 -26.3111
lfingers 7.12502
lthumb 18.6323 2.81658
rfemur 6.08918 -10.9947 28.8257
rtibia 8.23429
rfoot -20.216 -3.68229
rtoes 28.4405
lfemur -4.75529 10.9624 -10.9168
ltibia 63.8272
lfoot -0.963642 6.6772
ltoes -7.9377
843
root 11.4863 16.7613 -15.8258 172.325 63.3008 173.511
lowerback 6.75133 1.53385 0.374433
upperback 1.9447 2.16667 1.5496
thorax -1.82424 1.10793 1.20506
lowerneck -20.2021 -6.27533 -3.03305
upperneck 26.031 -10.1007 8.98409
head 12.6945 -3.34684 2.26891
rclavicle 2.10712e-014 -1.90833e-014
rhumerus -38.3161 8.92202 -89.931
rradius 46.881
rwrist -0.0229003
rhand -9.04176 -31.0392
rfingers 7.12502
rthumb 16.9062 -60.3233
lclavicle 2.10712e-014 -1.90833e-014
lhumerus -40.9054 2.02789 86.1081
lradius 23.9323
lwrist -21.2732
lhand -5.94287 -25.4176
lfingers 7.12502
lthumb 19.8873 3.58487
rfemur 6.59131 -10.6424 28.6353
rtibia 8.81972
rfoot -20.7529 -2.49333
rtoes 31.7519
lfemur -6.07288 10.6318 -11.1089
ltibia 64.4342
lfoot -0.809483 9.27609
ltoes -5.26615
844
root 11.559 16.7734 -15.8831 172.544 64.6828 173.593
lowerback 6.80006 1.61839 0.488095
upperback 1.96166 2.28822 1.57649
thorax -1.83291 1.16848 1.1578
lowerneck -19.1629 -5.68955 -2.39651
upperneck 25.1371 -9.31434 8.73711
head 12.0207 -3.04802 2.20979
rclavicle 1.15295e-014 1.03368e-014
rhumerus -37.4694 10.2473 -90.4139
rradius 47.2976
rwrist 0.275198
rhand -9.63188 -30.4909
rfingers 7.12502
rthumb 16.3381 -59.8227
lclavicle 1.15295e-014 1.03368e-014
lhumerus -41.9603 1.25556 86.9905
lradius 24.8714
lwrist -20.6576
lhand -3.92403 -23.4393
lfingers 7.12502
lthumb 21.8269 5.34974
rfemur 6.92235 -9.80309 28.8465
rtibia 8.11485
rfoot -20.0822 -2.01191
rtoes 31.7987
lfemur -7.49038 10.0055 -11.0307
ltibia 64.8622
lfoot -3.39641 8.68596
ltoes -3.78852
845
root 11.6341 16.7853 -15.9408 172.862 66.0996 173.882
lowerback 6.91724 1.70745 0.677919
upperback 2.03952 2.42503 1.63916
thorax -1.8152 1.23781 1.10229
lowerneck -19.4978 -5.75595 -2.45466
upperneck 25.2555 -9.44499 8.84195
head 12.1539 -3.08598 2.23157
rclavicle -5.10877e-014 -2.54444e-014
rhumerus -36.6069 11.4268 -90.7179
rradius 47.9484
rwrist 0.74528
rhand -9.28132 -30.643
rfingers 7.12502
rthumb 16.6756 -59.9467
lclavicle -5.10877e-014 -2.54444e-014
lhumerus -43.7796 -1.37131 88.9729
lradius 27.1961
lwrist -17.9641
lhand -2.24523 -21.1443
lfingers 7.12502
lthumb 23.4382 7.44822
rfemur 7.49643 -8.53541 29.3322
rtibia 7.36576
rfoot -20.1035 -2.05212
rtoes 30.3206
lfemur -8.70175 9.31797 -10.8188
ltibia 64.9695
lfoot -5.76434 8.21248
ltoes -3.51632
846
root 11.7139 16.7905 -16.0049 172.226 67.4312 173.201
lowerback 7.01905 1.81076 0.546331
upperback 2.13018 2.55233 1.56211
thorax -1.78243 1.30174 1.08435
lowerneck -19.8217 -5.70477 -2.505
upperneck 25.5555 -9.39691 8.86936
head 12.339 -3.04453 2.25752
rclavicle 8.42847e-014 2.06736e-014
rhumerus -35.82 12.3858 -90.9951
rradius 48.7207
rwrist 0.836502
rhand -9.11107 -30.9292
rfingers 7.12502
rthumb 16.8395 -60.219
lclavicle 8.42847e-014 2.06736e-014
lhumerus -44.463 -1.623 89.5389
lradius 27.3643
lwrist -18.0666
lhand -1.86011 -20.9066
lfingers 7.12502
lthumb 23.8076 7.63828
rfemur 8.13236 -7.92837 29.0691
rtibia 7.09387
rfoot -19.9923 -1.31131
rtoes 29.5772
lfemur -9.74796 8.81708 -11.1347
ltibia 64.9914
lfoot -5.31793 9.23721
ltoes -1.28579
